<svg xmlns="http://www.w3.org/2000/svg" viewBox="0 0 133.38 52.35"><defs><style>.cls-1{fill:#dfbe45;}</style></defs><g id="Layer_2" data-name="Layer 2"><g id="artwork"><path class="cls-1" d="M71,52.35c-13.62-.25-27.18-.79-40.21-5.26a30.7,30.7,0,0,1-7.29-3.7c-8.29-5.68-8.23-16.1.13-21.61C31.32,16.7,40.1,14.53,49,13.14c19.27-3,38.44-1.63,57.53,1.78,1.88.33,4.17.38,3.67,3.32s-2.08,3.78-5.09,3.55c-13.17-1-26.36-2.32-39.55-2.46a80.38,80.38,0,0,0-35.24,7.3,38.29,38.29,0,0,0-7.08,4.69c-2.42,1.89-2.22,4.29.5,5.36,5.46,2.16,11,4.62,16.74,5.48A214.73,214.73,0,0,0,110.66,41a52.26,52.26,0,0,0,13.76-4.91c5.35-2.66,5.91-7.58,2-12.16a28.79,28.79,0,0,0-15.08-9A235.17,235.17,0,0,0,83.55,9.36C68,7.36,52.38,7.49,36.94,11.08A99.38,99.38,0,0,0,6.63,23.34c-1.84,1.15-3.87,3.15-5.88.27-1.49-2.13-.72-4.88,2-6.73A87.79,87.79,0,0,1,30.39,4.47C57.27-2.52,84-.84,110.53,6.24A52.7,52.7,0,0,1,125,13c13.48,8.66,8.69,22.64-.5,29.56-6.37,4.78-14.11,6.23-21.82,7.41-3.38.52-6.77,1-10.18,1.26C85.35,51.7,78.18,52,71,52.35Z" transform="translate(0)"/></g></g></svg>